<svg id="Layer_1" data-name="Layer 1" xmlns="http://www.w3.org/2000/svg" viewBox="0 0 797.1896 862.6702"><defs><style>.cls-1{fill:#fff;stroke:#000;stroke-miterlimit:10;}</style></defs><rect class="cls-1" x="952.1239" y="29.9191" width="22" height="22" transform="translate(-234.6089 514.8133) rotate(-32.3029)"/><rect class="cls-1" x="939.8137" y="11.0746" width="22" height="22" transform="translate(-226.4436 505.3183) rotate(-32.3029)"/><rect class="cls-1" x="964.5704" y="48.6697" width="22" height="22" transform="translate(-242.7028 524.3666) rotate(-32.3029)"/><rect class="cls-1" x="976.8615" y="68.1101" width="22" height="22" transform="translate(-251.1894 533.9436) rotate(-32.3029)"/><rect class="cls-1" x="988.6182" y="86.7053" width="22" height="22" transform="translate(-259.307 543.1042) rotate(-32.3029)"/><rect class="cls-1" x="1000.3749" y="105.3004" width="22" height="22" transform="translate(-267.4247 552.2649) rotate(-32.3029)"/><rect class="cls-1" x="1012.1316" y="123.8956" width="22" height="22" transform="translate(-275.5423 561.4255) rotate(-32.3029)"/><rect class="cls-1" x="1031.4018" y="155.6811" width="22" height="22" transform="translate(-289.546 576.6426) rotate(-32.3029)"/><rect class="cls-1" x="1043.1585" y="174.2762" width="22" height="22" transform="translate(-297.6636 585.8033) rotate(-32.3029)"/><rect class="cls-1" x="1055.4496" y="193.7166" width="22" height="22" transform="matrix(0.8452, -0.5344, 0.5344, 0.8452, -306.1503, 595.3803)"/><rect class="cls-1" x="1067.2063" y="212.3118" width="22" height="22" transform="translate(-314.2679 604.5409) rotate(-32.3029)"/><rect class="cls-1" x="1078.963" y="230.9069" width="22" height="22" transform="translate(-322.3855 613.7015) rotate(-32.3029)"/><rect class="cls-1" x="1090.7197" y="249.5021" width="22" height="22" transform="translate(-330.5032 622.8621) rotate(-32.3029)"/><rect class="cls-1" x="1102.4764" y="268.0972" width="22" height="22" transform="translate(-338.6208 632.0228) rotate(-32.3029)"/><rect class="cls-1" x="871.8734" y="38.657" width="22" height="22" transform="translate(-251.6983 473.2801) rotate(-32.3029)"/><rect class="cls-1" x="883.6301" y="57.2522" width="22" height="22" transform="translate(-259.816 482.4407) rotate(-32.3029)"/><rect class="cls-1" x="895.9212" y="76.6925" width="22" height="22" transform="translate(-268.3026 492.0177) rotate(-32.3029)"/><rect class="cls-1" x="907.6779" y="95.2877" width="22" height="22" transform="translate(-276.4202 501.1783) rotate(-32.3029)"/><rect class="cls-1" x="919.4346" y="113.8829" width="22" height="22" transform="translate(-284.5379 510.339) rotate(-32.3029)"/><rect class="cls-1" x="931.1913" y="132.478" width="22" height="22" transform="translate(-292.6555 519.4996) rotate(-32.3029)"/><rect class="cls-1" x="942.948" y="151.0732" width="22" height="22" transform="matrix(0.8452, -0.5344, 0.5344, 0.8452, -300.7732, 528.6602)"/><rect class="cls-1" x="966.4614" y="188.2635" width="22" height="22" transform="translate(-317.0084 546.9814) rotate(-32.3029)"/><rect class="cls-1" x="978.2181" y="206.8587" width="22" height="22" transform="translate(-325.1261 556.1421) rotate(-32.3029)"/><rect class="cls-1" x="990.5092" y="226.299" width="22" height="22" transform="translate(-333.6127 565.7191) rotate(-32.3029)"/><rect class="cls-1" x="1002.2659" y="244.8942" width="22" height="22" transform="translate(-341.7303 574.8797) rotate(-32.3029)"/><rect class="cls-1" x="1014.0226" y="263.4894" width="22" height="22" transform="translate(-349.848 584.0403) rotate(-32.3029)"/><rect class="cls-1" x="1025.7793" y="282.0845" width="22" height="22" transform="translate(-357.9656 593.2009) rotate(-32.3029)"/><rect class="cls-1" x="1037.536" y="300.6797" width="22" height="22" transform="translate(-366.0833 602.3616) rotate(-32.3029)"/><rect class="cls-1" x="1061.0494" y="337.87" width="22" height="22" transform="matrix(0.8452, -0.5344, 0.5344, 0.8452, -382.3185, 620.6828)"/><rect class="cls-1" x="1072.8061" y="356.4652" width="22" height="22" transform="translate(-390.4362 629.8434) rotate(-32.3029)"/><rect class="cls-1" x="1085.0972" y="375.9055" width="22" height="22" transform="translate(-398.9228 639.4204) rotate(-32.3029)"/><rect class="cls-1" x="1096.8539" y="394.5007" width="22" height="22" transform="translate(-407.0404 648.5811) rotate(-32.3029)"/><rect class="cls-1" x="1108.6106" y="413.0959" width="22" height="22" transform="translate(-415.1581 657.7417) rotate(-32.3029)"/><rect class="cls-1" x="1120.3673" y="431.691" width="22" height="22" transform="translate(-423.2757 666.9023) rotate(-32.3029)"/><rect class="cls-1" x="1132.124" y="450.2862" width="22" height="22" transform="matrix(0.8452, -0.5344, 0.5344, 0.8452, -431.3934, 676.0629)"/><rect class="cls-1" x="797.5693" y="59.6071" width="22" height="22" transform="translate(-274.3937 436.8147) rotate(-32.3029)"/><rect class="cls-1" x="809.326" y="78.2023" width="22" height="22" transform="translate(-282.5113 445.9753) rotate(-32.3029)"/><rect class="cls-1" x="821.6171" y="97.6427" width="22" height="22" transform="translate(-290.998 455.5523) rotate(-32.3029)"/><rect class="cls-1" x="833.3738" y="116.2378" width="22" height="22" transform="translate(-299.1156 464.7129) rotate(-32.3029)"/><rect class="cls-1" x="845.1305" y="134.833" width="22" height="22" transform="translate(-307.2332 473.8735) rotate(-32.3029)"/><rect class="cls-1" x="856.8872" y="153.4281" width="22" height="22" transform="matrix(0.8452, -0.5344, 0.5344, 0.8452, -315.3509, 483.0342)"/><rect class="cls-1" x="868.6439" y="172.0233" width="22" height="22" transform="translate(-323.4685 492.1948) rotate(-32.3029)"/><rect class="cls-1" x="892.1573" y="209.2136" width="22" height="22" transform="translate(-339.7038 510.516) rotate(-32.3029)"/><rect class="cls-1" x="903.914" y="227.8088" width="22" height="22" transform="translate(-347.8214 519.6767) rotate(-32.3029)"/><rect class="cls-1" x="916.2051" y="247.2492" width="22" height="22" transform="translate(-356.3081 529.2537) rotate(-32.3029)"/><rect class="cls-1" x="927.9618" y="265.8443" width="22" height="22" transform="translate(-364.4257 538.4143) rotate(-32.3029)"/><rect class="cls-1" x="939.7186" y="284.4395" width="22" height="22" transform="translate(-372.5433 547.5749) rotate(-32.3029)"/><rect class="cls-1" x="951.4753" y="303.0346" width="22" height="22" transform="translate(-380.661 556.7355) rotate(-32.3029)"/><rect class="cls-1" x="963.232" y="321.6298" width="22" height="22" transform="translate(-388.7786 565.8962) rotate(-32.3029)"/><rect class="cls-1" x="986.7454" y="358.8201" width="22" height="22" transform="translate(-405.0139 584.2174) rotate(-32.3029)"/><rect class="cls-1" x="998.5021" y="377.4153" width="22" height="22" transform="translate(-413.1315 593.378) rotate(-32.3029)"/><rect class="cls-1" x="1010.7932" y="396.8557" width="22" height="22" transform="translate(-421.6182 602.955) rotate(-32.3029)"/><rect class="cls-1" x="1022.5499" y="415.4508" width="22" height="22" transform="translate(-429.7358 612.1157) rotate(-32.3029)"/><rect class="cls-1" x="1034.3066" y="434.046" width="22" height="22" transform="translate(-437.8534 621.2763) rotate(-32.3029)"/><rect class="cls-1" x="1046.0633" y="452.6411" width="22" height="22" transform="translate(-445.9711 630.4369) rotate(-32.3029)"/><rect class="cls-1" x="1057.82" y="471.2363" width="22" height="22" transform="translate(-454.0887 639.5975) rotate(-32.3029)"/><rect class="cls-1" x="727.8023" y="76.5056" width="22" height="22" transform="matrix(0.8452, -0.5344, 0.5344, 0.8452, -294.2217, 402.1468)"/><rect class="cls-1" x="739.559" y="95.1008" width="22" height="22" transform="translate(-302.3394 411.3074) rotate(-32.3029)"/><rect class="cls-1" x="751.8501" y="114.5412" width="22" height="22" transform="translate(-310.826 420.8844) rotate(-32.3029)"/><rect class="cls-1" x="763.6068" y="133.1363" width="22" height="22" transform="translate(-318.9436 430.045) rotate(-32.3029)"/><rect class="cls-1" x="775.3635" y="151.7315" width="22" height="22" transform="translate(-327.0613 439.2057) rotate(-32.3029)"/><rect class="cls-1" x="787.1202" y="170.3267" width="22" height="22" transform="translate(-335.1789 448.3663) rotate(-32.3029)"/><rect class="cls-1" x="798.8769" y="188.9218" width="22" height="22" transform="translate(-343.2966 457.5269) rotate(-32.3029)"/><rect class="cls-1" x="822.3903" y="226.1121" width="22" height="22" transform="translate(-359.5318 475.8481) rotate(-32.3029)"/><rect class="cls-1" x="834.147" y="244.7073" width="22" height="22" transform="translate(-367.6495 485.0088) rotate(-32.3029)"/><rect class="cls-1" x="846.4381" y="264.1477" width="22" height="22" transform="translate(-376.1361 494.5858) rotate(-32.3029)"/><rect class="cls-1" x="858.1948" y="282.7428" width="22" height="22" transform="translate(-384.2537 503.7464) rotate(-32.3029)"/><rect class="cls-1" x="869.9515" y="301.338" width="22" height="22" transform="translate(-392.3714 512.907) rotate(-32.3029)"/><rect class="cls-1" x="881.7082" y="319.9332" width="22" height="22" transform="translate(-400.489 522.0676) rotate(-32.3029)"/><rect class="cls-1" x="893.4649" y="338.5283" width="22" height="22" transform="translate(-408.6066 531.2283) rotate(-32.3029)"/><rect class="cls-1" x="916.9783" y="375.7186" width="22" height="22" transform="translate(-424.8419 549.5495) rotate(-32.3029)"/><rect class="cls-1" x="928.735" y="394.3138" width="22" height="22" transform="translate(-432.9596 558.7101) rotate(-32.3029)"/><rect class="cls-1" x="941.0261" y="413.7542" width="22" height="22" transform="translate(-441.4462 568.2871) rotate(-32.3029)"/><rect class="cls-1" x="952.7828" y="432.3493" width="22" height="22" transform="translate(-449.5638 577.4478) rotate(-32.3029)"/><rect class="cls-1" x="964.5395" y="450.9445" width="22" height="22" transform="translate(-457.6815 586.6084) rotate(-32.3029)"/><rect class="cls-1" x="976.2962" y="469.5396" width="22" height="22" transform="matrix(0.8452, -0.5344, 0.5344, 0.8452, -465.7991, 595.769)"/><rect class="cls-1" x="988.053" y="488.1348" width="22" height="22" transform="translate(-473.9167 604.9296) rotate(-32.3029)"/><rect class="cls-1" x="637.9242" y="99.0206" width="22" height="22" transform="translate(-320.1637 357.6009) rotate(-32.3029)"/><rect class="cls-1" x="649.6809" y="117.6158" width="22" height="22" transform="translate(-328.2813 366.7615) rotate(-32.3029)"/><rect class="cls-1" x="661.972" y="137.0562" width="22" height="22" transform="translate(-336.768 376.3385) rotate(-32.3029)"/><rect class="cls-1" x="673.7287" y="155.6514" width="22" height="22" transform="translate(-344.8856 385.4991) rotate(-32.3029)"/><rect class="cls-1" x="685.4854" y="174.2465" width="22" height="22" transform="translate(-353.0032 394.6597) rotate(-32.3029)"/><rect class="cls-1" x="697.2421" y="192.8417" width="22" height="22" transform="translate(-361.1209 403.8204) rotate(-32.3029)"/><rect class="cls-1" x="708.9988" y="211.4368" width="22" height="22" transform="translate(-369.2385 412.981) rotate(-32.3029)"/><rect class="cls-1" x="732.5122" y="248.6271" width="22" height="22" transform="translate(-385.4738 431.3022) rotate(-32.3029)"/><rect class="cls-1" x="744.2689" y="267.2223" width="22" height="22" transform="translate(-393.5914 440.4628) rotate(-32.3029)"/><rect class="cls-1" x="756.56" y="286.6627" width="22" height="22" transform="translate(-402.0781 450.0399) rotate(-32.3029)"/><rect class="cls-1" x="768.3167" y="305.2579" width="22" height="22" transform="translate(-410.1957 459.2005) rotate(-32.3029)"/><rect class="cls-1" x="780.0734" y="323.853" width="22" height="22" transform="translate(-418.3133 468.3611) rotate(-32.3029)"/><rect class="cls-1" x="791.8301" y="342.4482" width="22" height="22" transform="translate(-426.431 477.5217) rotate(-32.3029)"/><rect class="cls-1" x="803.5868" y="361.0433" width="22" height="22" transform="matrix(0.8452, -0.5344, 0.5344, 0.8452, -434.5486, 486.6823)"/><rect class="cls-1" x="827.1002" y="398.2336" width="22" height="22" transform="translate(-450.7839 505.0036) rotate(-32.3029)"/><rect class="cls-1" x="838.8569" y="416.8288" width="22" height="22" transform="translate(-458.9015 514.1642) rotate(-32.3029)"/><rect class="cls-1" x="851.148" y="436.2692" width="22" height="22" transform="translate(-467.3881 523.7412) rotate(-32.3029)"/><rect class="cls-1" x="862.9047" y="454.8644" width="22" height="22" transform="translate(-475.5058 532.9018) rotate(-32.3029)"/><rect class="cls-1" x="874.6614" y="473.4595" width="22" height="22" transform="translate(-483.6234 542.0625) rotate(-32.3029)"/><rect class="cls-1" x="886.4181" y="492.0547" width="22" height="22" transform="translate(-491.7411 551.2231) rotate(-32.3029)"/><rect class="cls-1" x="898.1748" y="510.6498" width="22" height="22" transform="translate(-499.8587 560.3837) rotate(-32.3029)"/><rect class="cls-1" x="552.775" y="189.2681" width="22" height="22" transform="translate(-394.8554 235.8121) rotate(-23.5582)"/><rect class="cls-1" x="561.5679" y="209.4345" width="22" height="22" transform="translate(-402.1827 241.0073) rotate(-23.5582)"/><rect class="cls-1" x="570.7606" y="230.5176" width="22" height="22" transform="translate(-409.843 246.4386) rotate(-23.5582)"/><rect class="cls-1" x="579.5535" y="250.684" width="22" height="22" transform="translate(-417.1702 251.6337) rotate(-23.5582)"/><rect class="cls-1" x="588.3465" y="270.8504" width="22" height="22" transform="translate(-424.4975 256.8289) rotate(-23.5582)"/><rect class="cls-1" x="597.1394" y="291.0168" width="22" height="22" transform="translate(-431.8248 262.024) rotate(-23.5582)"/><rect class="cls-1" x="605.9324" y="311.1832" width="22" height="22" transform="translate(-439.152 267.2192) rotate(-23.5582)"/><rect class="cls-1" x="623.5183" y="351.516" width="22" height="22" transform="translate(-453.8065 277.6094) rotate(-23.5582)"/><rect class="cls-1" x="632.3113" y="371.6824" width="22" height="22" transform="translate(-461.1338 282.8046) rotate(-23.5582)"/><rect class="cls-1" x="641.5039" y="392.7654" width="22" height="22" transform="translate(-468.7941 288.2359) rotate(-23.5582)"/><rect class="cls-1" x="650.2969" y="412.9319" width="22" height="22" transform="translate(-476.1214 293.431) rotate(-23.5582)"/><rect class="cls-1" x="659.0898" y="433.0983" width="22" height="22" transform="translate(-483.4486 298.6262) rotate(-23.5582)"/><rect class="cls-1" x="667.8828" y="453.2647" width="22" height="22" transform="translate(-490.7759 303.8213) rotate(-23.5582)"/><rect class="cls-1" x="676.6757" y="473.4311" width="22" height="22" transform="translate(-498.1031 309.0164) rotate(-23.5582)"/><rect class="cls-1" x="694.2617" y="513.7639" width="22" height="22" transform="translate(-512.7576 319.4067) rotate(-23.5582)"/><rect class="cls-1" x="703.0546" y="533.9303" width="22" height="22" transform="translate(-520.0849 324.6019) rotate(-23.5582)"/><rect class="cls-1" x="712.2473" y="555.0133" width="22" height="22" transform="translate(-527.7452 330.0332) rotate(-23.5582)"/><rect class="cls-1" x="721.0402" y="575.1797" width="22" height="22" transform="translate(-535.0725 335.2283) rotate(-23.5582)"/><rect class="cls-1" x="729.8332" y="595.3461" width="22" height="22" transform="translate(-542.3997 340.4235) rotate(-23.5582)"/><rect class="cls-1" x="738.6261" y="615.5125" width="22" height="22" transform="translate(-549.727 345.6186) rotate(-23.5582)"/><rect class="cls-1" x="747.4191" y="635.679" width="22" height="22" transform="translate(-557.0542 350.8137) rotate(-23.5582)"/><rect class="cls-1" x="532.6086" y="198.0611" width="22" height="22" transform="translate(-400.0506 228.4849) rotate(-23.5582)"/><rect class="cls-1" x="541.4015" y="218.2275" width="22" height="22" transform="translate(-407.3778 233.68) rotate(-23.5582)"/><rect class="cls-1" x="550.5942" y="239.3105" width="22" height="22" transform="translate(-415.0381 239.1113) rotate(-23.5582)"/><rect class="cls-1" x="559.3871" y="259.4769" width="22" height="22" transform="translate(-422.3654 244.3065) rotate(-23.5582)"/><rect class="cls-1" x="568.1801" y="279.6433" width="22" height="22" transform="translate(-429.6926 249.5016) rotate(-23.5582)"/><rect class="cls-1" x="576.973" y="299.8097" width="22" height="22" transform="translate(-437.0199 254.6968) rotate(-23.5582)"/><rect class="cls-1" x="585.766" y="319.9761" width="22" height="22" transform="translate(-444.3472 259.8919) rotate(-23.5582)"/><rect class="cls-1" x="603.3519" y="360.3089" width="22" height="22" transform="translate(-459.0017 270.2822) rotate(-23.5582)"/><rect class="cls-1" x="612.1449" y="380.4753" width="22" height="22" transform="translate(-466.3289 275.4773) rotate(-23.5582)"/><rect class="cls-1" x="621.3375" y="401.5584" width="22" height="22" transform="translate(-473.9892 280.9086) rotate(-23.5582)"/><rect class="cls-1" x="630.1305" y="421.7248" width="22" height="22" transform="translate(-481.3165 286.1038) rotate(-23.5582)"/><rect class="cls-1" x="638.9234" y="441.8912" width="22" height="22" transform="translate(-488.6438 291.2989) rotate(-23.5582)"/><rect class="cls-1" x="647.7164" y="462.0576" width="22" height="22" transform="translate(-495.971 296.494) rotate(-23.5582)"/><rect class="cls-1" x="656.5093" y="482.224" width="22" height="22" transform="translate(-503.2983 301.6892) rotate(-23.5582)"/><rect class="cls-1" x="674.0953" y="522.5568" width="22" height="22" transform="translate(-517.9528 312.0795) rotate(-23.5582)"/><rect class="cls-1" x="682.8882" y="542.7232" width="22" height="22" transform="translate(-525.28 317.2746) rotate(-23.5582)"/><rect class="cls-1" x="692.0809" y="563.8063" width="22" height="22" transform="translate(-532.9404 322.7059) rotate(-23.5582)"/><rect class="cls-1" x="700.8738" y="583.9727" width="22" height="22" transform="translate(-540.2676 327.9011) rotate(-23.5582)"/><rect class="cls-1" x="709.6668" y="604.1391" width="22" height="22" transform="translate(-547.5949 333.0962) rotate(-23.5582)"/><rect class="cls-1" x="718.4597" y="624.3055" width="22" height="22" transform="translate(-554.9221 338.2913) rotate(-23.5582)"/><rect class="cls-1" x="727.2527" y="644.4719" width="22" height="22" transform="translate(-562.2494 343.4865) rotate(-23.5582)"/><rect class="cls-1" x="448.6499" y="210.6684" width="22" height="22" transform="translate(-412.087 195.9791) rotate(-23.5582)"/><rect class="cls-1" x="457.4429" y="230.8348" width="22" height="22" transform="translate(-419.4143 201.1742) rotate(-23.5582)"/><rect class="cls-1" x="466.6355" y="251.9179" width="22" height="22" transform="translate(-427.0746 206.6055) rotate(-23.5582)"/><rect class="cls-1" x="475.4285" y="272.0843" width="22" height="22" transform="translate(-434.4019 211.8006) rotate(-23.5582)"/><rect class="cls-1" x="484.2214" y="292.2507" width="22" height="22" transform="translate(-441.7291 216.9958) rotate(-23.5582)"/><rect class="cls-1" x="493.0144" y="312.4171" width="22" height="22" transform="translate(-449.0564 222.1909) rotate(-23.5582)"/><rect class="cls-1" x="501.8073" y="332.5835" width="22" height="22" transform="translate(-456.3836 227.3861) rotate(-23.5582)"/><rect class="cls-1" x="519.3933" y="372.9163" width="22" height="22" transform="translate(-471.0381 237.7764) rotate(-23.5582)"/><rect class="cls-1" x="528.1862" y="393.0827" width="22" height="22" transform="translate(-478.3654 242.9715) rotate(-23.5582)"/><rect class="cls-1" x="537.3789" y="414.1658" width="22" height="22" transform="translate(-486.0257 248.4028) rotate(-23.5582)"/><rect class="cls-1" x="546.1718" y="434.3322" width="22" height="22" transform="matrix(0.9167, -0.3997, 0.3997, 0.9167, -493.353, 253.5979)"/><rect class="cls-1" x="554.9648" y="454.4986" width="22" height="22" transform="translate(-500.6802 258.7931) rotate(-23.5582)"/><rect class="cls-1" x="563.7577" y="474.665" width="22" height="22" transform="translate(-508.0075 263.9882) rotate(-23.5582)"/><rect class="cls-1" x="572.5507" y="494.8314" width="22" height="22" transform="translate(-515.3347 269.1834) rotate(-23.5582)"/><rect class="cls-1" x="590.1366" y="535.1642" width="22" height="22" transform="translate(-529.9892 279.5737) rotate(-23.5582)"/><rect class="cls-1" x="598.9296" y="555.3306" width="22" height="22" transform="translate(-537.3165 284.7688) rotate(-23.5582)"/><rect class="cls-1" x="608.1222" y="576.4136" width="22" height="22" transform="translate(-544.9768 290.2001) rotate(-23.5582)"/><rect class="cls-1" x="616.9152" y="596.5801" width="22" height="22" transform="translate(-552.3041 295.3952) rotate(-23.5582)"/><rect class="cls-1" x="625.7081" y="616.7465" width="22" height="22" transform="translate(-559.6313 300.5904) rotate(-23.5582)"/><rect class="cls-1" x="634.5011" y="636.9129" width="22" height="22" transform="translate(-566.9586 305.7855) rotate(-23.5582)"/><rect class="cls-1" x="643.2941" y="657.0793" width="22" height="22" transform="translate(-574.2858 310.9807) rotate(-23.5582)"/><rect class="cls-1" x="365.9381" y="233.6413" width="22" height="22" transform="translate(-428.1625 164.8355) rotate(-23.5582)"/><rect class="cls-1" x="374.7311" y="253.8078" width="22" height="22" transform="translate(-435.4897 170.0306) rotate(-23.5582)"/><rect class="cls-1" x="383.9237" y="274.8908" width="22" height="22" transform="translate(-443.1501 175.4619) rotate(-23.5582)"/><rect class="cls-1" x="392.7167" y="295.0572" width="22" height="22" transform="translate(-450.4773 180.6571) rotate(-23.5582)"/><rect class="cls-1" x="401.5096" y="315.2236" width="22" height="22" transform="translate(-457.8046 185.8522) rotate(-23.5582)"/><rect class="cls-1" x="410.3026" y="335.39" width="22" height="22" transform="translate(-465.1318 191.0474) rotate(-23.5582)"/><rect class="cls-1" x="419.0955" y="355.5564" width="22" height="22" transform="matrix(0.9167, -0.3997, 0.3997, 0.9167, -472.4591, 196.2425)"/><rect class="cls-1" x="437.0811" y="396.8059" width="22" height="22" transform="translate(-487.4467 206.8689) rotate(-23.5582)"/><rect class="cls-1" x="445.8741" y="416.9723" width="22" height="22" transform="translate(-494.7739 212.0641) rotate(-23.5582)"/><rect class="cls-1" x="455.0667" y="438.0554" width="22" height="22" transform="translate(-502.4342 217.4954) rotate(-23.5582)"/><rect class="cls-1" x="463.8597" y="458.2218" width="22" height="22" transform="matrix(0.9167, -0.3997, 0.3997, 0.9167, -509.7615, 222.6905)"/><rect class="cls-1" x="472.6526" y="478.3882" width="22" height="22" transform="translate(-517.0887 227.8857) rotate(-23.5582)"/><rect class="cls-1" x="481.4456" y="498.5546" width="22" height="22" transform="translate(-524.416 233.0808) rotate(-23.5582)"/><rect class="cls-1" x="490.2386" y="518.721" width="22" height="22" transform="translate(-531.7433 238.2759) rotate(-23.5582)"/><rect class="cls-1" x="510.2226" y="564.5537" width="22" height="22" transform="translate(-548.3961 250.0831) rotate(-23.5582)"/><rect class="cls-1" x="519.0155" y="584.7201" width="22" height="22" transform="translate(-555.7234 255.2782) rotate(-23.5582)"/><rect class="cls-1" x="528.2082" y="605.8032" width="22" height="22" transform="translate(-563.3837 260.7095) rotate(-23.5582)"/><rect class="cls-1" x="537.0011" y="625.9696" width="22" height="22" transform="translate(-570.7109 265.9047) rotate(-23.5582)"/><rect class="cls-1" x="545.7941" y="646.136" width="22" height="22" transform="translate(-578.0382 271.0998) rotate(-23.5582)"/><rect class="cls-1" x="554.587" y="666.3024" width="22" height="22" transform="translate(-585.3654 276.2949) rotate(-23.5582)"/><rect class="cls-1" x="563.38" y="686.4688" width="22" height="22" transform="translate(-592.6927 281.4901) rotate(-23.5582)"/><rect class="cls-1" x="957.8296" y="526.3645" width="22" height="22" transform="translate(-499.8208 483.4671) rotate(-26.548)"/><rect class="cls-1" x="967.6624" y="546.0448" width="22" height="22" transform="translate(-507.5801 489.937) rotate(-26.548)"/><rect class="cls-1" x="977.9422" y="566.6197" width="22" height="22" transform="translate(-515.6921 496.701) rotate(-26.548)"/><rect class="cls-1" x="987.7751" y="586.3" width="22" height="22" transform="translate(-523.4514 503.1708) rotate(-26.548)"/><rect class="cls-1" x="997.6079" y="605.9803" width="22" height="22" transform="translate(-531.2107 509.6407) rotate(-26.548)"/><rect class="cls-1" x="1007.4408" y="625.6607" width="22" height="22" transform="translate(-538.97 516.1106) rotate(-26.548)"/><rect class="cls-1" x="1017.2736" y="645.341" width="22" height="22" transform="translate(-546.7293 522.5804) rotate(-26.548)"/><rect class="cls-1" x="585.6893" y="723.4751" width="22" height="22" transform="translate(-627.1574 337.9232) rotate(-26.548)"/><rect class="cls-1" x="595.5221" y="743.1555" width="22" height="22" transform="translate(-634.9167 344.3931) rotate(-26.548)"/><rect class="cls-1" x="605.8019" y="763.7303" width="22" height="22" transform="translate(-643.0287 351.157) rotate(-26.548)"/><rect class="cls-1" x="615.6348" y="783.4107" width="22" height="22" transform="translate(-650.788 357.6269) rotate(-26.548)"/><rect class="cls-1" x="625.4676" y="803.091" width="22" height="22" transform="translate(-658.5473 364.0967) rotate(-26.548)"/><rect class="cls-1" x="635.3005" y="822.7713" width="22" height="22" transform="translate(-666.3066 370.5666) rotate(-26.548)"/><rect class="cls-1" x="645.1333" y="842.4516" width="22" height="22" transform="translate(-674.0659 377.0365) rotate(-26.548)"/><rect class="cls-1" x="753.6514" y="671.9892" width="22" height="22" transform="translate(672.8325 -312.298) rotate(63.4963)"/><rect class="cls-1" x="733.9635" y="681.8068" width="22" height="22" transform="translate(670.7162 -289.2427) rotate(63.4963)"/><rect class="cls-1" x="713.3806" y="692.0707" width="22" height="22" transform="translate(668.5038 -265.1395) rotate(63.4963)"/><rect class="cls-1" x="693.6927" y="701.8883" width="22" height="22" transform="translate(666.3875 -242.0842) rotate(63.4963)"/><rect class="cls-1" x="674.0048" y="711.7059" width="22" height="22" transform="translate(664.2713 -219.0289) rotate(63.4963)"/><rect class="cls-1" x="654.3168" y="721.5235" width="22" height="22" transform="translate(662.155 -195.9736) rotate(63.4963)"/><rect class="cls-1" x="634.6289" y="731.3411" width="22" height="22" transform="translate(660.0388 -172.9183) rotate(63.4963)"/><rect class="cls-1" x="771.3556" y="707.5737" width="22" height="22" transform="translate(719.3398 -307.0253) rotate(63.7692)"/><rect class="cls-1" x="751.6211" y="717.2974" width="22" height="22" transform="translate(717.0501 -283.8971) rotate(63.7692)"/><rect class="cls-1" x="730.9896" y="727.4631" width="22" height="22" transform="translate(714.6563 -259.7176) rotate(63.7692)"/><rect class="cls-1" x="711.2552" y="737.1868" width="22" height="22" transform="translate(712.3666 -236.5894) rotate(63.7692)"/><rect class="cls-1" x="691.5207" y="746.9106" width="22" height="22" transform="translate(710.0769 -213.4612) rotate(63.7692)"/><rect class="cls-1" x="671.7862" y="756.6343" width="22" height="22" transform="translate(707.7872 -190.333) rotate(63.7692)"/><rect class="cls-1" x="652.0518" y="766.358" width="22" height="22" transform="translate(705.4976 -167.2048) rotate(63.7692)"/><rect class="cls-1" x="789.1275" y="743.1419" width="22" height="22" transform="translate(757.3831 -304.2729) rotate(63.5633)"/><rect class="cls-1" x="769.4281" y="752.9365" width="22" height="22" transform="translate(755.2244 -281.1995) rotate(63.5633)"/><rect class="cls-1" x="748.8333" y="763.1763" width="22" height="22" transform="translate(752.9675 -257.0774) rotate(63.5633)"/><rect class="cls-1" x="729.1339" y="772.9708" width="22" height="22" transform="translate(750.8088 -234.0041) rotate(63.5633)"/><rect class="cls-1" x="709.4345" y="782.7654" width="22" height="22" transform="translate(748.6501 -210.9308) rotate(63.5633)"/><rect class="cls-1" x="689.7351" y="792.56" width="22" height="22" transform="translate(746.4913 -187.8574) rotate(63.5633)"/><rect class="cls-1" x="670.0357" y="802.3546" width="22" height="22" transform="translate(744.3326 -164.7841) rotate(63.5633)"/><rect class="cls-1" x="394.3092" y="125.7558" width="22" height="22" transform="translate(-370.9519 24.7173) rotate(-4.321)"/><rect class="cls-1" x="395.9667" y="147.6933" width="22" height="22" transform="translate(-372.6 24.9045) rotate(-4.321)"/><rect class="cls-1" x="454.9128" y="73.8649" width="22" height="22" transform="translate(-128.8049 490.9985) rotate(-70.8626)"/><rect class="cls-1" x="475.6969" y="81.0773" width="22" height="22" transform="translate(-121.6482 515.482) rotate(-70.8626)"/><rect class="cls-1" x="497.4259" y="88.6175" width="22" height="22" transform="translate(-114.1663 541.0783) rotate(-70.8626)"/><rect class="cls-1" x="518.21" y="95.8299" width="22" height="22" transform="translate(-107.0097 565.5617) rotate(-70.8626)"/><rect class="cls-1" x="559.5677" y="24.2375" width="22" height="22" transform="translate(-174.1721 -395.4079) rotate(44.4082)"/><rect class="cls-1" x="544.1728" y="39.9537" width="22" height="22" transform="translate(-167.5717 -380.1461) rotate(44.4082)"/></svg>