<svg width="51" height="48" viewBox="0 0 51 48" fill="none" xmlns="http://www.w3.org/2000/svg">
<path d="M43.0529 28.9999V31.9999H39.895V28.9999H43.0529ZM38.8423 18.9999H35.6844V17.9999C35.6844 16.4086 36.3499 14.8825 37.5343 13.7573C38.7187 12.6321 40.3252 11.9999 42.0002 11.9999C43.6753 11.9999 45.2817 12.6321 46.4662 13.7573C47.6506 14.8825 48.316 16.4086 48.316 17.9999C48.316 19.9399 47.2634 21.7599 45.6002 22.8199L44.9687 23.1999C43.7687 23.9999 43.0529 25.2199 43.0529 26.5999V26.9999H39.895V26.5999C39.895 24.2199 41.1581 21.9999 43.2423 20.6999L43.8529 20.3199C44.6739 19.7999 45.1581 18.9399 45.1581 17.9999C45.1581 17.2043 44.8254 16.4412 44.2332 15.8786C43.641 15.316 42.8378 14.9999 42.0002 14.9999C41.1627 14.9999 40.3595 15.316 39.7673 15.8786C39.175 16.4412 38.8423 17.2043 38.8423 17.9999V18.9999ZM18.8423 25.9999C24.4634 25.9999 35.6844 28.6799 35.6844 33.9999V39.9999H2.00024V33.9999C2.00024 28.6799 13.2213 25.9999 18.8423 25.9999ZM18.8423 7.99994C21.0757 7.99994 23.2177 8.84279 24.7969 10.3431C26.3762 11.8434 27.2634 13.8782 27.2634 15.9999C27.2634 18.1217 26.3762 20.1565 24.7969 21.6568C23.2177 23.1571 21.0757 23.9999 18.8423 23.9999C16.6089 23.9999 14.467 23.1571 12.8878 21.6568C11.3085 20.1565 10.4213 18.1217 10.4213 15.9999C10.4213 13.8782 11.3085 11.8434 12.8878 10.3431C14.467 8.84279 16.6089 7.99994 18.8423 7.99994ZM18.8423 29.7999C12.5897 29.7999 6.00024 32.7199 6.00024 33.9999V36.1999H31.6844V33.9999C31.6844 32.7199 25.095 29.7999 18.8423 29.7999ZM18.8423 11.7999C17.6698 11.7999 16.5453 12.2424 15.7162 13.0301C14.8871 13.8177 14.4213 14.886 14.4213 15.9999C14.4213 17.1138 14.8871 18.1821 15.7162 18.9698C16.5453 19.7574 17.6698 20.1999 18.8423 20.1999C20.0149 20.1999 21.1394 19.7574 21.9685 18.9698C22.7976 18.1821 23.2634 17.1138 23.2634 15.9999C23.2634 14.886 22.7976 13.8177 21.9685 13.0301C21.1394 12.2424 20.0149 11.7999 18.8423 11.7999Z" fill="#403926"/>
</svg>
