<svg width="43" height="40" viewBox="0 0 43 40" fill="none" xmlns="http://www.w3.org/2000/svg">
<path d="M34.7895 23.7501V26.0001H32.421V23.7501H34.7895ZM31.6316 16.2501H29.2632V15.5001C29.2632 14.3066 29.7622 13.162 30.6505 12.3181C31.5389 11.4742 32.7437 11.0001 34 11.0001C35.2563 11.0001 36.4611 11.4742 37.3494 12.3181C38.2378 13.162 38.7368 14.3066 38.7368 15.5001C38.7368 16.9551 37.9474 18.3201 36.7 19.1151L36.2263 19.4001C35.3263 20.0001 34.7895 20.9151 34.7895 21.9501V22.2501H32.421V21.9501C32.421 20.1651 33.3684 18.5001 34.9316 17.5251L35.3895 17.2401C36.0053 16.8501 36.3684 16.2051 36.3684 15.5001C36.3684 14.9033 36.1189 14.331 35.6747 13.9091C35.2306 13.4871 34.6281 13.2501 34 13.2501C33.3719 13.2501 32.7694 13.4871 32.3253 13.9091C31.8811 14.331 31.6316 14.9033 31.6316 15.5001V16.2501ZM16.6316 21.5001C20.8474 21.5001 29.2632 23.5101 29.2632 27.5001V32.0001H4V27.5001C4 23.5101 12.4158 21.5001 16.6316 21.5001ZM16.6316 8.00006C18.3066 8.00006 19.9131 8.6322 21.0975 9.75742C22.282 10.8826 22.9474 12.4088 22.9474 14.0001C22.9474 15.5914 22.282 17.1175 21.0975 18.2427C19.9131 19.3679 18.3066 20.0001 16.6316 20.0001C14.9565 20.0001 13.3501 19.3679 12.1656 18.2427C10.9812 17.1175 10.3158 15.5914 10.3158 14.0001C10.3158 12.4088 10.9812 10.8826 12.1656 9.75742C13.3501 8.6322 14.9565 8.00006 16.6316 8.00006ZM16.6316 24.3501C11.9421 24.3501 7 26.5401 7 27.5001V29.1501H26.2632V27.5001C26.2632 26.5401 21.3211 24.3501 16.6316 24.3501ZM16.6316 10.8501C15.7522 10.8501 14.9088 11.1819 14.287 11.7727C13.6651 12.3634 13.3158 13.1646 13.3158 14.0001C13.3158 14.8355 13.6651 15.6367 14.287 16.2274C14.9088 16.8182 15.7522 17.1501 16.6316 17.1501C17.511 17.1501 18.3544 16.8182 18.9762 16.2274C19.598 15.6367 19.9474 14.8355 19.9474 14.0001C19.9474 13.1646 19.598 12.3634 18.9762 11.7727C18.3544 11.1819 17.511 10.8501 16.6316 10.8501Z" fill="#403926"/>
</svg>
