<svg width="48" height="48" viewBox="0 0 48 48" fill="none" xmlns="http://www.w3.org/2000/svg">
<path d="M24 8C26.1217 8 28.1566 8.84285 29.6569 10.3431C31.1571 11.8434 32 13.8783 32 16C32 18.1217 31.1571 20.1566 29.6569 21.6569C28.1566 23.1571 26.1217 24 24 24C21.8783 24 19.8434 23.1571 18.3431 21.6569C16.8429 20.1566 16 18.1217 16 16C16 13.8783 16.8429 11.8434 18.3431 10.3431C19.8434 8.84285 21.8783 8 24 8ZM24 12C22.9391 12 21.9217 12.4214 21.1716 13.1716C20.4214 13.9217 20 14.9391 20 16C20 17.0609 20.4214 18.0783 21.1716 18.8284C21.9217 19.5786 22.9391 20 24 20C25.0609 20 26.0783 19.5786 26.8284 18.8284C27.5786 18.0783 28 17.0609 28 16C28 14.9391 27.5786 13.9217 26.8284 13.1716C26.0783 12.4214 25.0609 12 24 12ZM24 26C29.34 26 40 28.66 40 34V40H8V34C8 28.66 18.66 26 24 26ZM24 29.8C18.06 29.8 11.8 32.72 11.8 34V36.2H36.2V34C36.2 32.72 29.94 29.8 24 29.8Z" fill="#799C8A"/>
</svg>
