<svg width="40" height="40" viewBox="0 0 40 40" fill="none" xmlns="http://www.w3.org/2000/svg">
<path d="M20 7.99988C21.5913 7.99988 23.1174 8.63202 24.2426 9.75724C25.3679 10.8825 26 12.4086 26 13.9999C26 15.5912 25.3679 17.1173 24.2426 18.2425C23.1174 19.3677 21.5913 19.9999 20 19.9999C18.4087 19.9999 16.8826 19.3677 15.7574 18.2425C14.6321 17.1173 14 15.5912 14 13.9999C14 12.4086 14.6321 10.8825 15.7574 9.75724C16.8826 8.63202 18.4087 7.99988 20 7.99988ZM20 10.9999C19.2043 10.9999 18.4413 11.3159 17.8787 11.8786C17.3161 12.4412 17 13.2042 17 13.9999C17 14.7955 17.3161 15.5586 17.8787 16.1212C18.4413 16.6838 19.2043 16.9999 20 16.9999C20.7956 16.9999 21.5587 16.6838 22.1213 16.1212C22.6839 15.5586 23 14.7955 23 13.9999C23 13.2042 22.6839 12.4412 22.1213 11.8786C21.5587 11.3159 20.7956 10.9999 20 10.9999ZM20 21.4999C24.005 21.4999 32 23.4949 32 27.4999V31.9999H8V27.4999C8 23.4949 15.995 21.4999 20 21.4999ZM20 24.3499C15.545 24.3499 10.85 26.5399 10.85 27.4999V29.1499H29.15V27.4999C29.15 26.5399 24.455 24.3499 20 24.3499Z" fill="#799C8A"/>
</svg>
