<svg width="18" height="16" viewBox="0 0 18 16" fill="none" xmlns="http://www.w3.org/2000/svg">
<path d="M3.21664 0.500007C2.85831 0.500007 2.51664 0.616674 2.19998 0.850007C1.88331 1.08334 1.69998 1.38334 1.61664 1.75001L0.758309 5.42501C0.549975 6.33334 0.716642 7.10001 1.24164 7.77501C1.34164 7.87501 1.44164 7.97501 1.53331 8.05834C2.02498 8.53334 2.56664 8.83334 3.34998 8.83334C4.13331 8.83334 4.75831 8.49167 5.22498 8.04167C5.74998 8.55834 6.38331 8.83334 7.16664 8.83334C7.86664 8.83334 8.53331 8.52501 8.99998 8.05834C9.56664 8.58334 10.2083 8.83334 10.9166 8.83334C11.6416 8.83334 12.2583 8.55834 12.7833 8.04167C13.2583 8.51667 13.8833 8.83334 14.675 8.83334C15.4666 8.83334 16.025 8.54167 16.5 8.05001C16.575 7.97501 16.65 7.89167 16.7333 7.80834C17.2833 7.12501 17.45 6.33334 17.2416 5.42501L16.3833 1.75001C16.275 1.38334 16.0833 1.08334 15.775 0.850007C15.4946 0.622569 15.1443 0.498933 14.7833 0.500007H3.21664ZM14.7416 2.14167L15.6416 5.81667C15.7166 6.17501 15.6416 6.50001 15.4083 6.79167C15.2 7.05001 14.9416 7.16667 14.625 7.16667C14.3666 7.16667 14.1416 7.08334 13.9583 6.88334C13.775 6.69167 13.675 6.46667 13.65 6.20001L13.1416 2.16667L14.7416 2.14167ZM3.21664 2.16667H4.85831L4.34998 6.20001C4.24998 6.85834 3.92498 7.16667 3.37498 7.16667C3.03331 7.16667 2.77498 7.05001 2.59164 6.79167C2.35831 6.50001 2.28331 6.17501 2.35831 5.81667L3.21664 2.16667ZM6.54164 2.16667H8.16664V6.08334C8.16664 6.37501 8.07498 6.62501 7.86664 6.85001C7.65831 7.06667 7.39998 7.16667 7.08331 7.16667C6.79998 7.16667 6.55831 7.06667 6.36664 6.82501C6.17498 6.58334 6.08331 6.33334 6.08331 6.05001V5.91667L6.54164 2.16667ZM9.83331 2.16667H11.4583L11.9166 5.91667C11.9833 6.26667 11.9166 6.55834 11.675 6.80834C11.4583 7.05834 11.175 7.16667 10.8333 7.16667C10.575 7.16667 10.3416 7.06667 10.1333 6.85001C10.0354 6.74819 9.95848 6.62808 9.90701 6.49653C9.85553 6.36498 9.83049 6.22457 9.83331 6.08334V2.16667ZM1.49998 9.69167V13.8333C1.49998 14.7583 2.24164 15.5 3.16664 15.5H14.8333C15.2753 15.5 15.6993 15.3244 16.0118 15.0119C16.3244 14.6993 16.5 14.2754 16.5 13.8333V9.70834C16.0416 10.1917 15.4583 10.4667 14.8333 10.5C14 10.525 13.375 10.2833 12.7833 9.70834C12.2833 10.2083 11.6166 10.5 10.9166 10.5C10.1666 10.5 9.49998 10.2 8.99998 9.72501C8.52498 10.2 7.87498 10.5 7.14998 10.5C6.39164 10.5 5.72498 10.2083 5.22498 9.70834C4.74164 10.2 4.08331 10.5 3.35831 10.5C2.60831 10.5 2.04998 10.2083 1.49998 9.69167Z" fill="#799C8A"/>
</svg>
