<svg width="68" height="68" viewBox="0 0 68 68" fill="none" xmlns="http://www.w3.org/2000/svg">
<path d="M49.2994 19.2667L27.3327 41.2334L15.366 29.3001L10.666 34.0001L27.3327 50.6668L53.9994 24.0001L49.2994 19.2667ZM33.9994 0.666748C15.5993 0.666748 0.666016 15.6001 0.666016 34.0001C0.666016 52.4001 15.5993 67.3334 33.9994 67.3334C52.3994 67.3334 67.3327 52.4001 67.3327 34.0001C67.3327 15.6001 52.3994 0.666748 33.9994 0.666748ZM33.9994 60.6668C19.266 60.6668 7.33268 48.7334 7.33268 34.0001C7.33268 19.2667 19.266 7.33342 33.9994 7.33342C48.7327 7.33342 60.666 19.2667 60.666 34.0001C60.666 48.7334 48.7327 60.6668 33.9994 60.6668Z" fill="#545454" fill-opacity="0.5"/>
</svg>
