<svg width="47" height="32" viewBox="0 0 47 32" fill="none" xmlns="http://www.w3.org/2000/svg">
<path d="M41.0529 20.9999V23.9999H37.895V20.9999H41.0529ZM36.8423 10.9999H33.6844V9.99994C33.6844 8.40864 34.3499 6.88252 35.5343 5.7573C36.7187 4.63208 38.3252 3.99994 40.0002 3.99994C41.6753 3.99994 43.2817 4.63208 44.4662 5.7573C45.6506 6.88252 46.316 8.40864 46.316 9.99994C46.316 11.9399 45.2634 13.7599 43.6002 14.8199L42.9687 15.1999C41.7687 15.9999 41.0529 17.2199 41.0529 18.5999V18.9999H37.895V18.5999C37.895 16.2199 39.1581 13.9999 41.2423 12.6999L41.8529 12.3199C42.6739 11.7999 43.1581 10.9399 43.1581 9.99994C43.1581 9.20429 42.8254 8.44123 42.2332 7.87862C41.641 7.31601 40.8378 6.99994 40.0002 6.99994C39.1627 6.99994 38.3595 7.31601 37.7673 7.87862C37.175 8.44123 36.8423 9.20429 36.8423 9.99994V10.9999ZM16.8423 17.9999C22.4634 17.9999 33.6844 20.6799 33.6844 25.9999V31.9999H0.000244141V25.9999C0.000244141 20.6799 11.2213 17.9999 16.8423 17.9999ZM16.8423 -6.10352e-05C19.0757 -6.10352e-05 21.2177 0.842793 22.7969 2.34308C24.3762 3.84338 25.2634 5.87821 25.2634 7.99994C25.2634 10.1217 24.3762 12.1565 22.7969 13.6568C21.2177 15.1571 19.0757 15.9999 16.8423 15.9999C14.6089 15.9999 12.467 15.1571 10.8878 13.6568C9.30851 12.1565 8.42129 10.1217 8.42129 7.99994C8.42129 5.87821 9.30851 3.84338 10.8878 2.34308C12.467 0.842793 14.6089 -6.10352e-05 16.8423 -6.10352e-05ZM16.8423 21.7999C10.5897 21.7999 4.00024 24.7199 4.00024 25.9999V28.1999H29.6844V25.9999C29.6844 24.7199 23.095 21.7999 16.8423 21.7999ZM16.8423 3.79994C15.6698 3.79994 14.5453 4.24244 13.7162 5.03009C12.8871 5.81774 12.4213 6.88603 12.4213 7.99994C12.4213 9.11385 12.8871 10.1821 13.7162 10.9698C14.5453 11.7574 15.6698 12.1999 16.8423 12.1999C18.0149 12.1999 19.1394 11.7574 19.9685 10.9698C20.7976 10.1821 21.2634 9.11385 21.2634 7.99994C21.2634 6.88603 20.7976 5.81774 19.9685 5.03009C19.1394 4.24244 18.0149 3.79994 16.8423 3.79994Z" fill="#403926"/>
</svg>
