<svg width="35" height="24" viewBox="0 0 35 24" fill="none" xmlns="http://www.w3.org/2000/svg">
<path d="M30.7895 15.7501V18.0001H28.421V15.7501H30.7895ZM27.6316 8.25006H25.2632V7.50006C25.2632 6.30659 25.7622 5.162 26.6505 4.31808C27.5389 3.47417 28.7437 3.00006 30 3.00006C31.2563 3.00006 32.4611 3.47417 33.3494 4.31808C34.2378 5.162 34.7368 6.30659 34.7368 7.50006C34.7368 8.95506 33.9474 10.3201 32.7 11.1151L32.2263 11.4001C31.3263 12.0001 30.7895 12.9151 30.7895 13.9501V14.2501H28.421V13.9501C28.421 12.1651 29.3684 10.5001 30.9316 9.52506L31.3895 9.24006C32.0053 8.85006 32.3684 8.20506 32.3684 7.50006C32.3684 6.90333 32.1189 6.33103 31.6747 5.90907C31.2306 5.48711 30.6281 5.25006 30 5.25006C29.3719 5.25006 28.7694 5.48711 28.3253 5.90907C27.8811 6.33103 27.6316 6.90333 27.6316 7.50006V8.25006ZM12.6316 13.5001C16.8474 13.5001 25.2632 15.5101 25.2632 19.5001V24.0001H0V19.5001C0 15.5101 8.41579 13.5001 12.6316 13.5001ZM12.6316 6.10352e-05C14.3066 6.10352e-05 15.9131 0.632202 17.0975 1.75742C18.282 2.88264 18.9474 4.40876 18.9474 6.00006C18.9474 7.59136 18.282 9.11749 17.0975 10.2427C15.9131 11.3679 14.3066 12.0001 12.6316 12.0001C10.9565 12.0001 9.35008 11.3679 8.16564 10.2427C6.9812 9.11749 6.31579 7.59136 6.31579 6.00006C6.31579 4.40876 6.9812 2.88264 8.16564 1.75742C9.35008 0.632202 10.9565 6.10352e-05 12.6316 6.10352e-05ZM12.6316 16.3501C7.9421 16.3501 3 18.5401 3 19.5001V21.1501H22.2632V19.5001C22.2632 18.5401 17.3211 16.3501 12.6316 16.3501ZM12.6316 2.85006C11.7522 2.85006 10.9088 3.18194 10.287 3.77268C9.66513 4.36341 9.31579 5.16463 9.31579 6.00006C9.31579 6.83549 9.66513 7.63671 10.287 8.22745C10.9088 8.81819 11.7522 9.15006 12.6316 9.15006C13.511 9.15006 14.3544 8.81819 14.9762 8.22745C15.598 7.63671 15.9474 6.83549 15.9474 6.00006C15.9474 5.16463 15.598 4.36341 14.9762 3.77268C14.3544 3.18194 13.511 2.85006 12.6316 2.85006Z" fill="#403926"/>
</svg>
