<svg width="24" height="24" viewBox="0 0 24 24" fill="none" xmlns="http://www.w3.org/2000/svg">
<path d="M12 -0.00012207C13.5913 -0.00012207 15.1174 0.632019 16.2426 1.75724C17.3679 2.88246 18 4.40858 18 5.99988C18 7.59118 17.3679 9.1173 16.2426 10.2425C15.1174 11.3677 13.5913 11.9999 12 11.9999C10.4087 11.9999 8.88258 11.3677 7.75736 10.2425C6.63214 9.1173 6 7.59118 6 5.99988C6 4.40858 6.63214 2.88246 7.75736 1.75724C8.88258 0.632019 10.4087 -0.00012207 12 -0.00012207ZM12 2.99988C11.2043 2.99988 10.4413 3.31595 9.87868 3.87856C9.31607 4.44117 9 5.20423 9 5.99988C9 6.79553 9.31607 7.55859 9.87868 8.1212C10.4413 8.68381 11.2043 8.99988 12 8.99988C12.7956 8.99988 13.5587 8.68381 14.1213 8.1212C14.6839 7.55859 15 6.79553 15 5.99988C15 5.20423 14.6839 4.44117 14.1213 3.87856C13.5587 3.31595 12.7956 2.99988 12 2.99988ZM12 13.4999C16.005 13.4999 24 15.4949 24 19.4999V23.9999H0V19.4999C0 15.4949 7.995 13.4999 12 13.4999ZM12 16.3499C7.545 16.3499 2.85 18.5399 2.85 19.4999V21.1499H21.15V19.4999C21.15 18.5399 16.455 16.3499 12 16.3499Z" fill="#799C8A"/>
</svg>
